<?xml version="1.0" standalone="no"?>
<!DOCTYPE svg PUBLIC "-//W3C//DTD SVG 20010904//EN"
 "http://www.w3.org/TR/2001/REC-SVG-20010904/DTD/svg10.dtd">
<svg version="1.0" xmlns="http://www.w3.org/2000/svg"
 width="736.000000pt" height="566.000000pt" viewBox="0 0 736.000000 566.000000"
 preserveAspectRatio="xMidYMid meet">

<g transform="translate(0.000000,566.000000) scale(0.100000,-0.100000)"
fill="#000000" stroke="none">
<path d="M5962 5633 c-13 -3 -19 -9 -16 -15 4 -7 2 -8 -5 -4 -15 9 -53 -3 -46
-15 3 -5 0 -6 -8 -3 -9 3 -48 -28 -103 -83 -104 -104 -123 -129 -481 -623
-297 -410 -435 -602 -563 -784 -69 -97 -167 -236 -218 -307 -275 -385 -818
-1230 -805 -1252 3 -5 2 -7 -3 -4 -9 5 -201 -306 -290 -472 -22 -42 -81 -150
-131 -241 -75 -137 -283 -552 -283 -565 0 -2 -17 -41 -38 -87 -21 -46 -48
-108 -59 -138 -12 -30 -38 -98 -58 -150 -21 -52 -62 -169 -93 -260 -52 -152
-56 -172 -56 -255 0 -123 22 -183 92 -253 29 -29 57 -50 62 -47 5 3 12 0 15
-6 4 -5 14 -8 22 -5 8 3 12 2 9 -3 -7 -11 41 -24 56 -15 6 4 8 3 4 -4 -7 -12
42 -11 63 2 10 7 12 5 6 -4 -5 -8 -4 -11 2 -7 5 3 25 9 44 12 104 16 158 28
155 34 -2 3 8 7 22 7 30 1 54 7 93 22 15 6 30 8 33 5 3 -4 6 0 6 7 0 7 3 10 7
7 3 -4 12 -2 20 4 7 6 13 8 13 4 0 -4 12 0 26 10 18 12 24 13 19 4 -3 -8 1 -5
9 5 9 11 16 16 16 12 0 -5 6 -3 13 3 8 6 17 8 20 4 4 -3 7 0 7 7 0 7 3 11 6 7
3 -3 33 8 66 23 34 16 65 27 70 24 4 -3 8 0 8 6 0 6 4 9 9 5 5 -3 12 -1 16 5
4 6 11 8 16 5 5 -4 9 -2 9 2 0 5 10 10 23 10 12 1 33 4 47 6 14 3 43 8 65 12
43 7 76 13 115 21 14 3 33 6 43 7 9 1 17 5 17 10 0 4 5 5 10 2 6 -4 18 -1 27
7 14 11 16 11 8 -1 -5 -10 -4 -12 3 -7 15 9 51 18 80 19 12 1 22 3 22 6 0 6
42 12 103 14 20 1 37 4 37 7 0 4 16 6 35 5 20 -1 35 3 35 9 0 6 5 4 10 -4 5
-8 10 -10 10 -5 0 6 21 10 46 10 25 0 48 3 50 6 2 4 14 5 26 1 16 -4 19 -2 13
9 -7 11 -6 12 7 2 8 -7 17 -11 20 -8 5 5 115 18 163 18 17 0 33 5 37 11 6 8 8
8 8 0 0 -7 13 -10 33 -7 17 3 38 5 45 6 6 0 12 4 12 8 0 5 11 4 24 -1 13 -5
26 -6 29 -3 6 5 36 9 110 14 21 2 41 7 44 11 2 5 11 4 19 -3 8 -6 14 -8 14 -3
0 5 19 10 43 11 89 3 133 8 146 17 9 6 12 5 8 -1 -4 -6 4 -9 21 -7 44 6 142
14 222 20 41 3 102 7 135 10 90 7 227 6 345 -2 133 -9 257 -10 293 -2 54 13
143 97 133 125 -3 8 -1 11 4 8 10 -6 13 17 12 83 0 67 -89 142 -201 169 -92
22 -117 27 -171 37 -19 3 -46 8 -60 11 -35 7 -87 13 -155 19 -33 3 -89 9 -125
12 -70 7 -368 7 -540 -1 -133 -5 -209 -12 -355 -29 -22 -3 -65 -8 -95 -11 -58
-6 -99 -11 -165 -20 -22 -2 -57 -7 -77 -9 -33 -5 -92 -14 -183 -31 -16 -3 -46
-8 -65 -11 -30 -5 -182 -36 -245 -50 -11 -2 -33 -7 -50 -10 -16 -3 -50 -10
-75 -15 -25 -6 -56 -13 -69 -15 -14 -3 -61 -14 -105 -25 -45 -11 -92 -22 -106
-25 -14 -2 -32 -7 -40 -10 -8 -3 -26 -8 -40 -10 -53 -10 -219 -58 -215 -63 1
-4 -17 -7 -41 -9 -24 -1 -44 -1 -44 0 0 2 7 24 14 50 8 25 12 49 9 52 -4 3 0
6 7 6 7 0 10 3 7 6 -3 4 -2 15 4 26 11 21 21 54 22 80 1 9 4 15 6 12 5 -5 40
88 44 116 1 8 4 17 7 20 9 9 40 72 40 81 0 5 16 44 36 87 20 42 40 86 44 97 5
11 19 43 31 70 13 28 23 52 24 55 0 3 13 26 28 53 15 26 25 52 21 59 -4 6 -3
8 3 5 8 -5 31 28 38 53 1 3 13 29 28 59 14 29 24 58 20 64 -3 6 -2 7 3 4 9 -5
72 93 65 102 -1 2 1 7 6 10 11 8 37 63 35 74 -1 4 2 7 7 7 5 0 16 14 25 30 8
17 24 46 36 65 12 19 19 35 15 35 -3 0 -1 6 5 13 6 6 38 57 72 112 70 115 90
148 141 227 20 32 37 60 37 64 0 3 12 21 26 39 15 20 23 39 18 47 -4 7 -4 10
1 6 8 -8 45 33 45 50 0 6 7 17 15 25 8 8 16 20 17 27 2 7 13 24 25 38 13 13
20 28 18 32 -3 5 -1 10 3 12 18 7 73 99 66 110 -4 7 -3 8 4 4 11 -6 38 31 34
47 -1 4 2 7 7 7 8 0 63 78 81 115 11 23 74 110 84 117 6 4 8 8 4 8 -5 0 -1 8
8 18 37 41 84 108 84 120 0 6 5 12 11 12 5 0 8 4 5 9 -4 5 -2 11 2 13 16 6 72
90 66 99 -3 5 0 8 7 7 7 -2 18 7 24 20 5 12 13 22 17 22 5 0 8 7 8 15 0 8 4
15 8 15 4 0 16 15 27 33 10 17 21 34 25 37 14 11 62 80 55 80 -3 0 1 7 9 16
36 35 67 84 61 93 -4 7 1 8 12 4 10 -3 15 -3 11 1 -3 4 2 17 12 29 11 12 19
25 20 30 0 4 9 16 20 27 12 12 18 26 14 32 -4 6 -3 8 3 5 14 -9 37 19 27 34
-4 7 -3 9 4 5 6 -3 19 7 28 24 10 16 23 30 28 30 5 0 7 3 3 6 -5 5 16 33 51
70 7 8 10 14 6 14 -4 0 3 9 16 20 13 11 20 20 16 20 -4 0 7 15 23 33 17 17 31
35 31 38 0 4 13 21 29 40 16 18 27 37 25 41 -3 4 -1 8 4 8 5 0 22 19 38 43 16
23 34 47 39 54 6 6 32 42 59 80 27 37 63 85 78 106 17 21 26 43 22 50 -4 6 -4
9 1 5 10 -10 20 3 174 228 30 43 77 108 103 143 27 35 47 70 44 78 -3 8 -2 12
3 9 12 -8 63 72 55 86 -4 7 -3 8 4 4 12 -7 35 27 25 38 -3 3 -2 6 4 6 16 0 54
69 47 83 -4 7 -4 9 1 5 12 -11 38 29 29 45 -4 6 -4 9 1 5 18 -17 86 113 92
178 5 44 2 58 -18 86 -13 18 -29 36 -36 41 -6 4 -19 14 -27 23 -9 8 -21 12
-27 8 -7 -4 -9 -3 -6 3 11 18 -77 28 -141 16z m-1271 -2290 c13 -16 12 -17 -3
-4 -10 7 -18 15 -18 17 0 8 8 3 21 -13z"/>
<path d="M2229 3636 c-2 -2 -35 -7 -74 -10 -38 -4 -83 -9 -100 -11 -16 -3 -48
-7 -70 -10 -206 -28 -663 -129 -725 -160 -59 -30 -96 -77 -103 -129 -5 -34 -1
-43 24 -67 16 -15 29 -30 29 -33 0 -3 -20 -40 -45 -82 -25 -42 -42 -81 -38
-87 3 -7 3 -9 -2 -5 -14 13 -479 -757 -469 -775 4 -7 3 -9 -1 -4 -11 9 -96
-134 -90 -151 3 -7 1 -11 -3 -8 -16 9 -312 -560 -400 -769 -138 -327 -154
-459 -63 -545 38 -37 75 -47 98 -28 7 6 13 7 13 2 0 -5 9 5 20 21 11 17 20 26
20 20 0 -5 7 3 15 19 8 15 12 32 9 37 -3 5 0 9 7 9 8 0 7 5 -2 17 -10 11 -10
14 -1 9 11 -7 16 6 15 41 -1 7 3 11 7 8 10 -6 22 54 13 68 -3 5 -1 7 4 4 9 -6
19 14 27 53 3 10 61 168 88 238 16 40 25 78 22 84 -4 7 -2 8 4 4 7 -4 12 -2
12 4 0 7 6 26 14 43 8 18 31 73 51 122 32 79 47 114 85 200 5 11 23 52 41 90
18 39 32 73 31 78 -1 4 2 7 7 7 7 0 19 28 19 47 0 3 4 9 9 12 5 3 22 29 37 56
16 28 35 58 43 67 8 9 12 22 7 29 -4 8 -3 10 4 5 7 -4 12 -2 12 5 0 7 2 10 6
7 3 -3 26 1 52 9 26 8 55 16 65 18 10 2 27 7 37 10 22 7 54 14 95 22 17 2 35
9 41 14 6 5 15 4 22 -3 7 -7 12 -8 12 -2 0 8 18 12 88 16 12 1 22 4 22 8 0 3
17 6 38 7 35 1 87 9 87 13 0 1 11 3 25 4 14 0 31 5 39 10 10 7 12 6 6 -4 -6
-10 -4 -12 9 -7 10 4 31 7 47 7 22 0 28 4 23 13 -6 9 -5 9 7 0 12 -10 18 -10
29 0 10 9 11 9 6 0 -5 -10 -1 -11 16 -4 13 4 31 7 41 6 9 -2 17 0 17 4 0 5 11
6 25 3 14 -2 33 2 42 9 12 10 14 10 9 2 -10 -17 -4 -16 38 4 19 9 40 28 46 42
15 37 9 89 -12 108 -27 25 -103 40 -187 38 -92 -2 -178 -11 -291 -30 -16 -3
-43 -7 -60 -10 -114 -19 -139 -23 -190 -30 -24 -4 -48 -9 -52 -11 -21 -13 -25
10 -7 42 10 19 16 41 13 47 -4 7 -4 9 1 5 11 -11 38 29 29 44 -4 6 -3 8 3 5
13 -8 126 179 117 194 -5 8 -3 9 6 4 10 -6 12 -4 7 9 -4 10 -3 15 3 11 5 -3
14 4 20 15 6 11 7 20 3 20 -4 0 0 6 8 13 28 23 70 87 64 97 -4 6 -3 9 2 8 4
-2 8 -1 8 2 0 3 10 16 23 30 12 13 20 30 17 38 -2 7 -1 11 4 8 5 -3 15 2 22
11 12 14 12 16 -1 8 -8 -5 2 9 23 30 20 22 37 43 37 48 0 4 15 27 33 49 46 60
107 124 107 115 0 -4 16 -1 35 7 20 9 38 15 40 15 17 -1 72 15 84 25 12 9 13
8 6 -4 -8 -13 -7 -13 10 0 10 8 20 14 22 13 9 -7 53 -2 49 6 -3 4 6 6 20 3 16
-3 30 1 35 9 6 10 9 10 9 2 0 -14 31 -6 42 11 5 7 8 6 8 -3 0 -10 6 -10 26 4
15 9 23 12 20 6 -4 -6 -2 -9 6 -6 7 2 27 6 43 9 17 3 41 7 55 11 37 9 91 16
128 18 17 1 32 4 32 8 0 3 21 4 46 2 29 -3 44 -1 40 6 -4 5 6 4 21 -4 16 -7
46 -16 68 -19 39 -5 70 -11 90 -17 15 -5 57 12 75 30 42 40 55 112 27 154 -30
46 -102 66 -246 66 -71 0 -130 -2 -132 -3z m-969 -740 c0 -2 -8 -10 -17 -17
-16 -13 -17 -12 -4 4 13 16 21 21 21 13z"/>
<path d="M5095 3394 c-19 -6 -46 -19 -60 -28 -33 -22 -110 -120 -135 -173 -20
-42 -28 -139 -11 -129 5 3 8 -2 7 -12 0 -9 5 -16 12 -14 8 1 11 -2 8 -7 -4 -5
-1 -13 5 -17 19 -11 88 -14 94 -3 4 5 11 7 16 4 5 -4 9 1 9 10 0 9 5 13 10 10
14 -9 42 14 33 28 -3 6 -1 7 6 3 15 -10 43 13 34 27 -3 5 -1 7 4 4 14 -9 37
19 27 34 -4 8 -3 9 4 5 14 -8 54 53 47 72 -3 7 -1 11 4 8 12 -8 30 69 25 106
-8 65 -69 96 -139 72z"/>
<path d="M2433 3314 c-63 -31 -133 -106 -167 -178 -42 -90 -39 -141 11 -187
14 -13 22 -17 18 -9 -7 12 -6 13 6 3 15 -12 37 -11 80 2 11 4 17 10 14 14 -2
5 7 7 21 5 21 -2 23 0 13 12 -9 12 -9 13 2 9 15 -5 69 39 69 56 0 6 5 7 10 4
6 -3 10 1 10 9 0 9 5 16 11 16 6 0 8 7 5 16 -3 8 -2 13 3 10 13 -9 53 84 48
110 -2 13 0 21 4 18 24 -14 -8 73 -34 94 -30 25 -70 24 -124 -4z"/>
<path d="M2965 3328 c-25 -14 -50 -40 -100 -103 -22 -27 -42 -52 -45 -55 -13
-10 -125 -175 -199 -293 -42 -67 -82 -123 -88 -124 -6 -1 -24 -5 -40 -7 -33
-6 -118 -23 -153 -31 -14 -3 -37 -7 -52 -10 -44 -8 -72 -21 -92 -44 -27 -30
-22 -112 6 -95 7 4 8 2 4 -4 -17 -28 96 -59 154 -42 20 6 15 -21 -15 -79 -125
-248 -180 -369 -221 -491 -10 -30 -19 -57 -19 -60 -1 -3 -8 -30 -17 -60 -51
-172 -58 -365 -17 -465 15 -34 31 -59 38 -57 7 1 10 -2 7 -7 -7 -11 38 -45 76
-60 18 -7 29 -6 38 2 10 9 11 9 6 0 -5 -9 3 -12 31 -9 21 3 51 5 66 5 20 1 26
5 21 14 -5 8 -2 8 9 -2 12 -9 17 -10 17 -2 0 7 5 9 10 6 6 -3 10 -1 10 5 0 6
5 8 10 5 6 -3 10 -1 10 4 0 6 3 10 8 9 30 -8 210 150 196 173 -4 7 -3 9 3 6
11 -7 70 61 65 76 -1 5 2 6 7 3 5 -4 18 9 29 26 12 18 29 42 39 53 40 43 84
116 77 128 -4 6 -4 9 1 5 11 -10 47 50 39 64 -4 6 -3 8 3 5 13 -8 26 20 16 35
-3 7 -1 8 5 4 7 -4 14 7 18 30 6 32 3 41 -19 59 -22 20 -36 22 -82 16 -5 0
-23 -22 -39 -49 -99 -160 -156 -244 -198 -293 -26 -31 -44 -59 -40 -63 4 -4 2
-6 -4 -4 -6 1 -28 -12 -48 -30 -63 -57 -163 -91 -181 -62 -4 6 -10 8 -14 5
-20 -11 -36 54 -36 147 0 53 3 94 6 92 4 -2 12 24 19 59 7 34 21 84 32 110 10
27 15 53 12 59 -4 7 -2 8 4 4 7 -4 12 -2 12 4 0 6 8 30 19 53 19 43 33 78 36
87 1 3 9 22 18 44 9 21 14 43 10 49 -3 5 -1 7 4 4 9 -6 48 57 46 73 -1 3 3 10
9 17 5 7 6 18 2 24 -4 7 -3 9 3 6 5 -3 21 17 35 46 14 29 53 96 87 150 33 54
61 102 61 107 0 6 20 15 45 21 25 6 45 15 45 19 0 4 11 6 25 5 14 -2 25 2 25
8 0 5 3 8 6 5 3 -4 35 4 70 17 36 13 67 24 69 24 5 0 70 13 88 17 4 1 8 2 10
4 3 2 32 8 87 15 25 3 54 7 65 9 11 2 25 4 32 5 7 0 24 12 38 26 36 37 34 83
-6 121 -28 27 -36 29 -102 29 -87 -1 -144 -9 -192 -29 -39 -17 -36 -16 -66
-16 -11 0 -18 -4 -15 -9 4 -5 -3 -7 -14 -4 -27 7 -26 10 15 68 54 76 77 114
73 120 -2 4 5 11 15 16 9 6 15 15 11 20 -3 5 -2 8 3 7 4 -2 9 1 10 6 0 5 8 13
16 18 23 12 48 67 53 118 5 39 2 49 -21 73 -28 29 -65 35 -100 15z"/>
<path d="M4693 2599 c-77 -49 -272 -348 -416 -634 -156 -313 -240 -572 -206
-636 15 -30 49 -60 60 -54 4 3 10 1 14 -5 3 -5 11 -10 16 -10 6 0 7 5 3 12 -4
7 -3 8 5 4 6 -4 19 -2 28 6 12 9 15 9 9 1 -4 -7 -5 -13 -2 -13 8 0 62 109 71
145 5 17 9 33 10 38 2 4 4 9 5 12 1 3 4 10 5 15 1 6 3 11 5 13 1 2 6 20 13 50
1 6 6 18 10 25 5 6 5 17 1 24 -4 7 -3 8 4 4 8 -4 12 0 12 11 0 10 20 65 45
122 25 57 42 108 38 114 -3 6 -1 7 5 3 7 -4 12 -2 12 4 0 14 36 90 87 183 24
43 41 82 37 88 -3 5 0 8 6 7 6 -2 24 22 41 52 17 30 36 62 43 70 7 8 17 26 24
40 13 28 34 62 42 70 14 13 75 116 73 122 -2 5 1 8 6 8 5 0 12 12 15 27 19 73
-56 123 -121 82z m-582 -1196 c13 -16 12 -17 -3 -4 -10 7 -18 15 -18 17 0 8 8
3 21 -13z"/>
<path d="M6475 2609 c-82 -17 -246 -109 -311 -174 -6 -6 -30 -26 -52 -45 -23
-18 -38 -38 -35 -43 3 -6 2 -7 -4 -4 -5 3 -18 -4 -28 -16 -10 -12 -39 -47 -65
-77 -75 -90 -117 -153 -161 -241 -23 -46 -42 -88 -44 -94 -1 -5 -8 -23 -14
-40 -21 -51 -48 -188 -46 -235 2 -25 3 -58 4 -73 0 -16 4 -26 9 -24 4 3 8 -11
9 -29 4 -85 106 -187 209 -209 39 -9 144 -13 144 -6 0 4 12 7 28 8 47 2 91 12
112 23 11 6 20 7 20 3 0 -4 7 1 15 11 9 11 15 14 15 7 0 -9 5 -8 16 3 8 9 21
16 28 16 12 0 206 115 216 128 12 16 86 67 93 64 5 -1 6 2 2 8 -3 5 -2 10 3
10 10 0 163 154 207 207 15 18 23 38 19 44 -4 8 -3 9 4 5 11 -6 38 31 34 47
-1 4 2 7 8 7 18 0 11 69 -10 90 -16 16 -24 18 -47 9 -37 -14 -54 -29 -46 -42
3 -5 2 -7 -4 -4 -5 3 -44 -32 -86 -78 -91 -99 -258 -236 -333 -273 -29 -14
-51 -28 -49 -32 2 -3 -4 -6 -13 -7 -9 -1 -42 -9 -72 -18 -164 -49 -290 4 -303
128 -5 43 0 48 73 71 61 19 201 91 212 109 4 7 8 9 8 4 0 -11 80 44 80 56 0 6
3 8 6 4 14 -14 214 185 268 265 53 81 94 184 101 255 7 71 -15 127 -63 162
-30 21 -106 31 -157 20z m-1 -238 c53 -44 -88 -245 -266 -378 -18 -13 -32 -29
-30 -34 1 -6 -2 -8 -7 -4 -6 3 -39 -9 -73 -27 -70 -36 -115 -47 -102 -26 5 7
9 15 9 18 1 3 9 20 18 38 10 17 14 32 10 32 -5 0 -3 4 2 8 22 16 85 123 79
134 -4 6 -3 8 3 5 14 -9 75 61 67 75 -4 7 -2 8 4 4 12 -7 89 71 84 86 -1 5 2
7 8 3 6 -3 16 0 24 7 7 7 24 20 36 28 12 8 29 21 36 28 8 7 14 11 14 8 0 -3
10 -2 23 3 28 10 41 9 61 -8z"/>
<path d="M2074 2535 c-35 -15 -63 -46 -135 -145 -68 -94 -140 -207 -209 -330
-29 -52 -63 -108 -74 -125 -12 -16 -20 -32 -20 -35 1 -3 -18 -47 -42 -98 -24
-52 -44 -96 -44 -98 0 -2 -13 -32 -29 -66 -62 -138 -106 -294 -96 -346 9 -46
34 -84 52 -78 8 4 11 1 7 -5 -4 -7 8 -10 37 -8 46 4 87 37 73 60 -4 7 -3 9 3
6 8 -5 33 36 39 63 0 3 3 12 7 20 14 36 26 94 20 103 -4 6 -1 7 7 2 10 -6 12
-3 7 14 -3 13 -3 20 0 17 4 -4 13 13 21 36 17 53 62 169 70 183 4 6 7 12 8 15
0 3 9 25 19 50 11 25 18 47 16 49 -1 2 2 7 7 10 12 7 82 144 82 160 0 6 5 11
11 11 5 0 8 4 5 9 -3 5 1 12 10 15 8 3 12 10 9 16 -3 5 -1 10 5 10 7 0 9 7 6
17 -4 10 -4 14 0 10 7 -7 74 95 74 114 0 5 4 9 9 9 5 0 11 8 15 18 3 9 15 32
26 50 11 18 17 39 14 45 -4 7 -3 9 1 4 10 -9 46 43 39 55 -3 5 0 7 7 6 15 -4
48 57 49 90 1 56 -52 90 -106 67z"/>
<path d="M5668 2516 c-44 -16 -196 -117 -288 -191 -36 -29 -112 -100 -170
-158 -98 -99 -145 -131 -100 -68 10 16 17 31 13 35 -3 3 -1 6 5 6 7 0 12 7 12
15 0 8 5 15 11 15 5 0 8 4 5 9 -4 5 -3 11 1 13 13 5 73 86 73 97 0 6 5 11 11
11 6 0 8 7 5 16 -3 8 -2 13 3 10 5 -3 14 8 20 26 29 82 -6 147 -78 148 -26 0
-41 -8 -67 -36 -49 -51 -142 -185 -206 -294 -71 -122 -280 -537 -309 -615 -33
-86 -32 -84 -33 -149 -1 -55 1 -60 33 -87 26 -21 37 -25 43 -16 6 9 8 9 8 0 0
-9 7 -10 23 -4 12 5 24 9 27 9 20 2 40 17 45 33 4 11 11 17 16 14 5 -4 9 0 9
9 0 8 3 16 8 18 13 5 62 105 55 112 -3 3 -1 6 6 6 8 0 11 6 7 17 -4 10 -4 14
0 11 10 -10 146 211 138 224 -4 6 -3 8 3 5 6 -4 28 15 49 41 22 25 50 57 62
69 15 13 21 27 16 35 -4 7 -4 10 1 6 4 -4 29 11 55 35 83 76 108 96 114 90 3
-4 6 -1 6 6 0 7 5 9 10 6 9 -6 -40 -108 -60 -125 -16 -14 -80 -186 -99 -265
-27 -117 -31 -138 -32 -210 -1 -73 20 -197 32 -189 5 3 6 -2 3 -10 -16 -41 97
-195 133 -182 8 3 12 2 8 -3 -3 -5 10 -8 27 -7 49 4 50 5 42 19 -5 9 -4 9 6 0
17 -16 51 26 52 64 1 25 -34 110 -51 123 -7 6 -8 9 -25 95 -19 90 -3 275 27
313 5 6 7 12 4 12 -4 0 2 20 13 44 10 24 16 47 13 50 -4 3 -2 6 4 6 8 0 30 35
38 60 21 65 143 255 258 402 40 52 65 92 61 99 -4 7 -3 9 3 6 13 -8 26 20 16
35 -3 6 -1 8 5 5 6 -5 13 8 17 32 14 83 -50 128 -137 97z"/>
</g>
</svg>
